<svg xmlns="http://www.w3.org/2000/svg" width="26.5" height="26.5" viewBox="0 0 238 238" shape-rendering="geometricPrecision" text-rendering="geometricPrecision" image-rendering="optimizeQuality" fill-rule="evenodd" clip-rule="evenodd"><circle cx="119" cy="119" r="119" fill="none"/><path d="M201 128c2-18-2-36-10-50-11-19-28-33-50-39s-45-2-63 8C60 58 45 75 40 97c-6 22-3 45 8 63 10 18 28 33 50 39l6-24c-15-4-28-14-35-27-8-13-10-29-6-44 4-16 14-28 27-36 13-7 29-10 44-6 16 4 29 15 36 28 6 10 9 22 8 34l-13-11-15 15 43 40 40-43-16-15-16 18z" fill="#fff" fill-rule="nonzero"/></svg>