{
	"asset":{
		"generator":"Khronos glTF Blender I/O v4.3.47",
		"version":"2.0"
	},
	"scene":0,
	"scenes":[
		{
			"name":"Scene",
			"nodes":[
				0,
				1
			]
		}
	],
	"nodes":[
		{
			"mesh":0,
			"name":"Cylinder001",
			"translation":[
				0,
				0.09678767621517181,
				-0.4778415858745575
			]
		},
		{
			"mesh":1,
			"name":"print",
			"translation":[
				0,
				0.09678767621517181,
				-0.4778415858745575
			]
		}
	],
	"materials":[
		{
			"doubleSided":true,
			"name":"01 - Default",
			"pbrMetallicRoughness":{
				"metallicFactor":0,
				"roughnessFactor":0.4500536322593689
			}
		},
		{
			"doubleSided":true,
			"name":"print",
			"pbrMetallicRoughness":{
				"baseColorFactor":[
					0,
					1,
					0.11764707416296005,
					1
				],
				"metallicFactor":0,
				"roughnessFactor":0.4500536322593689
			}
		},
		{
			"doubleSided":true,
			"name":"04 - Default",
			"pbrMetallicRoughness":{
				"baseColorFactor":[
					0.27843141555786133,
					0,
					0.9921568036079407,
					1
				],
				"metallicFactor":0,
				"roughnessFactor":0.4500536322593689
			}
		},
		{
			"doubleSided":true,
			"name":"05 - Default",
			"pbrMetallicRoughness":{
				"baseColorFactor":[
					0.9725489020347595,
					0.7764706611633301,
					0,
					1
				],
				"metallicFactor":0,
				"roughnessFactor":0.4500536322593689
			}
		}
	],
	"meshes":[
		{
			"name":"Cylinder001.001",
			"primitives":[
				{
					"attributes":{
						"POSITION":0,
						"NORMAL":1,
						"TEXCOORD_0":2
					},
					"indices":3,
					"material":0
				},
				{
					"attributes":{
						"POSITION":4,
						"NORMAL":5,
						"TEXCOORD_0":6
					},
					"indices":7,
					"material":1
				},
				{
					"attributes":{
						"POSITION":8,
						"NORMAL":9,
						"TEXCOORD_0":10
					},
					"indices":11,
					"material":2
				},
				{
					"attributes":{
						"POSITION":12,
						"NORMAL":13,
						"TEXCOORD_0":14
					},
					"indices":15,
					"material":3
				}
			]
		},
		{
			"name":"Cylinder001.002",
			"primitives":[
				{
					"attributes":{
						"POSITION":16,
						"NORMAL":17,
						"TEXCOORD_0":18
					},
					"indices":19,
					"material":0
				}
			]
		}
	],
	"accessors":[
		{
			"bufferView":0,
			"componentType":5126,
			"count":17082,
			"max":[
				1.012141227722168,
				2.338921308517456,
				1.0874236822128296
			],
			"min":[
				-1.012141227722168,
				-0.09678767621517181,
				-1.012141227722168
			],
			"type":"VEC3"
		},
		{
			"bufferView":1,
			"componentType":5126,
			"count":17082,
			"type":"VEC3"
		},
		{
			"bufferView":2,
			"componentType":5126,
			"count":17082,
			"type":"VEC2"
		},
		{
			"bufferView":3,
			"componentType":5123,
			"count":17082,
			"type":"SCALAR"
		},
		{
			"bufferView":4,
			"componentType":5126,
			"count":1620,
			"max":[
				1.006611943244934,
				2.3633275032043457,
				1.006611943244934
			],
			"min":[
				-1.006611943244934,
				2.338921070098877,
				-1.006611943244934
			],
			"type":"VEC3"
		},
		{
			"bufferView":5,
			"componentType":5126,
			"count":1620,
			"type":"VEC3"
		},
		{
			"bufferView":6,
			"componentType":5126,
			"count":1620,
			"type":"VEC2"
		},
		{
			"bufferView":7,
			"componentType":5123,
			"count":1620,
			"type":"SCALAR"
		},
		{
			"bufferView":8,
			"componentType":5126,
			"count":318,
			"max":[
				0.945492148399353,
				2.3548693656921387,
				0.945492148399353
			],
			"min":[
				-0.9454920887947083,
				0.06173546984791756,
				-0.9454922080039978
			],
			"type":"VEC3"
		},
		{
			"bufferView":9,
			"componentType":5126,
			"count":318,
			"type":"VEC3"
		},
		{
			"bufferView":10,
			"componentType":5126,
			"count":318,
			"type":"VEC2"
		},
		{
			"bufferView":11,
			"componentType":5123,
			"count":318,
			"type":"SCALAR"
		},
		{
			"bufferView":12,
			"componentType":5126,
			"count":8448,
			"max":[
				0.17910298705101013,
				2.153963804244995,
				1.9678243398666382
			],
			"min":[
				-0.17909987270832062,
				0.22933803498744965,
				1.0698153972625732
			],
			"type":"VEC3"
		},
		{
			"bufferView":13,
			"componentType":5126,
			"count":8448,
			"type":"VEC3"
		},
		{
			"bufferView":14,
			"componentType":5126,
			"count":8448,
			"type":"VEC2"
		},
		{
			"bufferView":15,
			"componentType":5123,
			"count":8448,
			"type":"SCALAR"
		},
		{
			"bufferView":16,
			"componentType":5126,
			"count":9672,
			"max":[
				1.012141227722168,
				2.3144354820251465,
				0.917305052280426
			],
			"min":[
				-1.012141227722168,
				-0.03159467875957489,
				-1.012141227722168
			],
			"type":"VEC3"
		},
		{
			"bufferView":17,
			"componentType":5126,
			"count":9672,
			"type":"VEC3"
		},
		{
			"bufferView":18,
			"componentType":5126,
			"count":9672,
			"type":"VEC2"
		},
		{
			"bufferView":19,
			"componentType":5123,
			"count":9672,
			"type":"SCALAR"
		}
	],
	"bufferViews":[
		{
			"buffer":0,
			"byteLength":204984,
			"byteOffset":0,
			"target":34962
		},
		{
			"buffer":0,
			"byteLength":204984,
			"byteOffset":204984,
			"target":34962
		},
		{
			"buffer":0,
			"byteLength":136656,
			"byteOffset":409968,
			"target":34962
		},
		{
			"buffer":0,
			"byteLength":34164,
			"byteOffset":546624,
			"target":34963
		},
		{
			"buffer":0,
			"byteLength":19440,
			"byteOffset":580788,
			"target":34962
		},
		{
			"buffer":0,
			"byteLength":19440,
			"byteOffset":600228,
			"target":34962
		},
		{
			"buffer":0,
			"byteLength":12960,
			"byteOffset":619668,
			"target":34962
		},
		{
			"buffer":0,
			"byteLength":3240,
			"byteOffset":632628,
			"target":34963
		},
		{
			"buffer":0,
			"byteLength":3816,
			"byteOffset":635868,
			"target":34962
		},
		{
			"buffer":0,
			"byteLength":3816,
			"byteOffset":639684,
			"target":34962
		},
		{
			"buffer":0,
			"byteLength":2544,
			"byteOffset":643500,
			"target":34962
		},
		{
			"buffer":0,
			"byteLength":636,
			"byteOffset":646044,
			"target":34963
		},
		{
			"buffer":0,
			"byteLength":101376,
			"byteOffset":646680,
			"target":34962
		},
		{
			"buffer":0,
			"byteLength":101376,
			"byteOffset":748056,
			"target":34962
		},
		{
			"buffer":0,
			"byteLength":67584,
			"byteOffset":849432,
			"target":34962
		},
		{
			"buffer":0,
			"byteLength":16896,
			"byteOffset":917016,
			"target":34963
		},
		{
			"buffer":0,
			"byteLength":116064,
			"byteOffset":933912,
			"target":34962
		},
		{
			"buffer":0,
			"byteLength":116064,
			"byteOffset":1049976,
			"target":34962
		},
		{
			"buffer":0,
			"byteLength":77376,
			"byteOffset":1166040,
			"target":34962
		},
		{
			"buffer":0,
			"byteLength":19344,
			"byteOffset":1243416,
			"target":34963
		}
	],
	"buffers":[
		{
			"byteLength":1262760,
			"uri":"model.bin"
		}
	]
}
